<svg width="44" viewBox="0 0 24 24" fill="none" xmlns="http://www.w3.org/2000/svg">
<style>
#drag-path {
  fill: #0c0c0c;
}

@media (prefers-color-scheme: dark) {
  #drag-path {
      fill: #fcfcfc;
  }
}
</style>
<path id="drag-path" d="M12 18a5.999 5.999 0 0 1-3.263-.938A5.712 5.712 0 0 1 6.525 14.5a.854.854 0 0 1 0-.7c.1-.233.275-.4.525-.5a.96.96 0 0 1 .787-.013c.275.109.48.305.613.588.35.65.841 1.167 1.475 1.55A3.933 3.933 0 0 0 12 16c1.1 0 2.041-.392 2.825-1.175C15.608 14.042 16 13.1 16 12c0-.75-.196-1.438-.588-2.063a4.117 4.117 0 0 0-1.562-1.462 1.074 1.074 0 0 1-.55-.613.993.993 0 0 1 .025-.787c.117-.25.287-.425.512-.525.225-.1.454-.1.688 0a5.842 5.842 0 0 1 2.525 2.212c.633.992.95 2.071.95 3.238 0 1.667-.584 3.083-1.75 4.25C15.083 17.417 13.666 18 12 18Zm0 4c-2.633 0-4.917-.892-6.85-2.675-1.934-1.783-2.992-3.975-3.175-6.575a.936.936 0 0 1 .237-.7.949.949 0 0 1 .688-.325c.283-.017.537.07.762.263.225.191.354.437.388.737.266 2.067 1.162 3.796 2.687 5.188C8.262 19.303 10.017 20 12 20c2.233 0 4.125-.775 5.675-2.325C19.225 16.125 20 14.233 20 12c0-2.083-.692-3.88-2.075-5.388C16.54 5.104 14.8 4.25 12.7 4.05a1.113 1.113 0 0 1-.738-.375 1.004 1.004 0 0 1-.262-.75.992.992 0 0 1 .325-.7.913.913 0 0 1 .7-.25c1.3.083 2.512.408 3.637.975A10.137 10.137 0 0 1 19.3 5.162c.833.909 1.491 1.95 1.975 3.125A9.663 9.663 0 0 1 22 12a9.738 9.738 0 0 1-.788 3.9 10.098 10.098 0 0 1-2.137 3.175c-.9.9-1.959 1.613-3.175 2.137A9.737 9.737 0 0 1 12 22ZM9.55 11.5l-3.3-3.275L5.5 10.5c-.083.233-.242.346-.475.338-.234-.009-.392-.13-.475-.363L2.275 2.9a.465.465 0 0 1 .112-.513.465.465 0 0 1 .513-.112l7.575 2.275c.233.083.354.242.362.475.009.233-.104.392-.337.475l-2.275.75 3.3 3.3c.283.283.425.608.425.975s-.142.692-.425.975a1.355 1.355 0 0 1-.988.425c-.375 0-.704-.142-.987-.425Z"/>
</svg>