<svg width="1024" height="1024" viewBox="0 0 1024 1024" fill="none" xmlns="http://www.w3.org/2000/svg">
<rect x="101" y="101" width="823" height="823" rx="182" fill="url(#paint0_linear_14_2)"/>
<g filter="url(#filter0_i_14_2)">
<path d="M228.723 335.1C228.723 296.025 260.484 264.256 299.547 264.256H724.492C763.556 264.256 795.316 296.025 795.316 335.1V689.319C795.316 728.394 763.556 760.163 724.492 760.163H299.547C260.484 760.163 228.723 728.394 228.723 689.319V335.1ZM281.841 636.186V671.608C281.841 681.349 289.809 689.319 299.547 689.319H334.96C344.698 689.319 352.666 681.349 352.666 671.608V636.186C352.666 626.445 344.698 618.475 334.96 618.475H299.547C289.809 618.475 281.841 626.445 281.841 636.186ZM689.08 618.475C679.342 618.475 671.374 626.445 671.374 636.186V671.608C671.374 681.349 679.342 689.319 689.08 689.319H724.492C734.23 689.319 742.198 681.349 742.198 671.608V636.186C742.198 626.445 734.23 618.475 724.492 618.475H689.08ZM281.841 494.498V529.92C281.841 539.661 289.809 547.631 299.547 547.631H334.96C344.698 547.631 352.666 539.661 352.666 529.92V494.498C352.666 484.757 344.698 476.787 334.96 476.787H299.547C289.809 476.787 281.841 484.757 281.841 494.498ZM689.08 476.787C679.342 476.787 671.374 484.757 671.374 494.498V529.92C671.374 539.661 679.342 547.631 689.08 547.631H724.492C734.23 547.631 742.198 539.661 742.198 529.92V494.498C742.198 484.757 734.23 476.787 724.492 476.787H689.08ZM281.841 352.811V388.233C281.841 397.974 289.809 405.943 299.547 405.943H334.96C344.698 405.943 352.666 397.974 352.666 388.233V352.811C352.666 343.07 344.698 335.1 334.96 335.1H299.547C289.809 335.1 281.841 343.07 281.841 352.811ZM689.08 335.1C679.342 335.1 671.374 343.07 671.374 352.811V388.233C671.374 397.974 679.342 405.943 689.08 405.943H724.492C734.23 405.943 742.198 397.974 742.198 388.233V352.811C742.198 343.07 734.23 335.1 724.492 335.1H689.08ZM405.784 370.522V441.365C405.784 460.958 421.608 476.787 441.196 476.787H582.844C602.431 476.787 618.256 460.958 618.256 441.365V370.522C618.256 350.929 602.431 335.1 582.844 335.1H441.196C421.608 335.1 405.784 350.929 405.784 370.522ZM441.196 547.631C421.608 547.631 405.784 563.46 405.784 583.053V653.897C405.784 673.49 421.608 689.319 441.196 689.319H582.844C602.431 689.319 618.256 673.49 618.256 653.897V583.053C618.256 563.46 602.431 547.631 582.844 547.631H441.196Z" fill="white"/>
</g>
<defs>
<filter id="filter0_i_14_2" x="228.723" y="264.256" width="571.593" height="500.907" filterUnits="userSpaceOnUse" color-interpolation-filters="sRGB">
<feFlood flood-opacity="0" result="BackgroundImageFix"/>
<feBlend mode="normal" in="SourceGraphic" in2="BackgroundImageFix" result="shape"/>
<feColorMatrix in="SourceAlpha" type="matrix" values="0 0 0 0 0 0 0 0 0 0 0 0 0 0 0 0 0 0 127 0" result="hardAlpha"/>
<feOffset dx="5" dy="5"/>
<feGaussianBlur stdDeviation="10"/>
<feComposite in2="hardAlpha" operator="arithmetic" k2="-1" k3="1"/>
<feColorMatrix type="matrix" values="0 0 0 0 0 0 0 0 0 0 0 0 0 0 0 0 0 0 0.2 0"/>
<feBlend mode="normal" in2="shape" result="effect1_innerShadow_14_2"/>
</filter>
<linearGradient id="paint0_linear_14_2" x1="512.5" y1="101" x2="512.5" y2="924" gradientUnits="userSpaceOnUse">
<stop stop-color="#FF6D5D"/>
<stop offset="1" stop-color="#FF3B30"/>
</linearGradient>
</defs>
</svg>
