<svg width="1024" height="1024" viewBox="0 0 1024 1024" fill="none" xmlns="http://www.w3.org/2000/svg">
<g clip-path="url(#clip0_14_2)">
<rect width="1024" height="1024" rx="182" fill="url(#paint0_linear_14_2)"/>
<path d="M158 291.143C158 242.527 197.575 203 246.25 203H775.75C824.425 203 864 242.527 864 291.143V731.857C864 780.473 824.425 820 775.75 820H246.25C197.575 820 158 780.473 158 731.857V291.143ZM224.188 665.75V709.821C224.188 721.941 234.116 731.857 246.25 731.857H290.375C302.509 731.857 312.438 721.941 312.438 709.821V665.75C312.438 653.63 302.509 643.714 290.375 643.714H246.25C234.116 643.714 224.188 653.63 224.188 665.75ZM731.625 643.714C719.491 643.714 709.562 653.63 709.562 665.75V709.821C709.562 721.941 719.491 731.857 731.625 731.857H775.75C787.884 731.857 797.812 721.941 797.812 709.821V665.75C797.812 653.63 787.884 643.714 775.75 643.714H731.625ZM224.188 489.464V533.536C224.188 545.655 234.116 555.571 246.25 555.571H290.375C302.509 555.571 312.438 545.655 312.438 533.536V489.464C312.438 477.345 302.509 467.429 290.375 467.429H246.25C234.116 467.429 224.188 477.345 224.188 489.464ZM731.625 467.429C719.491 467.429 709.562 477.345 709.562 489.464V533.536C709.562 545.655 719.491 555.571 731.625 555.571H775.75C787.884 555.571 797.812 545.655 797.812 533.536V489.464C797.812 477.345 787.884 467.429 775.75 467.429H731.625ZM224.188 313.179V357.25C224.188 369.37 234.116 379.286 246.25 379.286H290.375C302.509 379.286 312.438 369.37 312.438 357.25V313.179C312.438 301.059 302.509 291.143 290.375 291.143H246.25C234.116 291.143 224.188 301.059 224.188 313.179ZM731.625 291.143C719.491 291.143 709.562 301.059 709.562 313.179V357.25C709.562 369.37 719.491 379.286 731.625 379.286H775.75C787.884 379.286 797.812 369.37 797.812 357.25V313.179C797.812 301.059 787.884 291.143 775.75 291.143H731.625ZM378.625 335.214V423.357C378.625 447.734 398.343 467.429 422.75 467.429H599.25C623.657 467.429 643.375 447.734 643.375 423.357V335.214C643.375 310.837 623.657 291.143 599.25 291.143H422.75C398.343 291.143 378.625 310.837 378.625 335.214ZM422.75 555.571C398.343 555.571 378.625 575.266 378.625 599.643V687.786C378.625 712.163 398.343 731.857 422.75 731.857H599.25C623.657 731.857 643.375 712.163 643.375 687.786V599.643C643.375 575.266 623.657 555.571 599.25 555.571H422.75Z" fill="white"/>
</g>
<defs>
<linearGradient id="paint0_linear_14_2" x1="512" y1="0" x2="512" y2="1024" gradientUnits="userSpaceOnUse">
<stop stop-color="#FF6D5D"/>
<stop offset="1" stop-color="#FF3B30"/>
</linearGradient>
<clipPath id="clip0_14_2">
<rect width="1024" height="1024" fill="white"/>
</clipPath>
</defs>
</svg>
