<svg width="44" viewBox="0 0 823 823" fill="none" xmlns="http://www.w3.org/2000/svg"><rect width="823" height="823" rx="182" fill="url(#a)"/><g filter="url(#b)"><path d="M127.723 234.1c0-39.075 31.761-70.844 70.824-70.844h424.945c39.064 0 70.824 31.769 70.824 70.844v354.219c0 39.075-31.76 70.844-70.824 70.844H198.547c-39.063 0-70.824-31.769-70.824-70.844V234.1Zm53.118 301.086v35.422c0 9.741 7.968 17.711 17.706 17.711h35.413c9.738 0 17.706-7.97 17.706-17.711v-35.422c0-9.741-7.968-17.711-17.706-17.711h-35.413c-9.738 0-17.706 7.97-17.706 17.711Zm407.239-17.711c-9.738 0-17.706 7.97-17.706 17.711v35.422c0 9.741 7.968 17.711 17.706 17.711h35.412c9.738 0 17.706-7.97 17.706-17.711v-35.422c0-9.741-7.968-17.711-17.706-17.711H588.08ZM180.841 393.498v35.422c0 9.741 7.968 17.711 17.706 17.711h35.413c9.738 0 17.706-7.97 17.706-17.711v-35.422c0-9.741-7.968-17.711-17.706-17.711h-35.413c-9.738 0-17.706 7.97-17.706 17.711Zm407.239-17.711c-9.738 0-17.706 7.97-17.706 17.711v35.422c0 9.741 7.968 17.711 17.706 17.711h35.412c9.738 0 17.706-7.97 17.706-17.711v-35.422c0-9.741-7.968-17.711-17.706-17.711H588.08ZM180.841 251.811v35.422c0 9.741 7.968 17.71 17.706 17.71h35.413c9.738 0 17.706-7.969 17.706-17.71v-35.422c0-9.741-7.968-17.711-17.706-17.711h-35.413c-9.738 0-17.706 7.97-17.706 17.711ZM588.08 234.1c-9.738 0-17.706 7.97-17.706 17.711v35.422c0 9.741 7.968 17.71 17.706 17.71h35.412c9.738 0 17.706-7.969 17.706-17.71v-35.422c0-9.741-7.968-17.711-17.706-17.711H588.08Zm-283.296 35.422v70.843c0 19.593 15.824 35.422 35.412 35.422h141.648c19.587 0 35.412-15.829 35.412-35.422v-70.843c0-19.593-15.825-35.422-35.412-35.422H340.196c-19.588 0-35.412 15.829-35.412 35.422Zm35.412 177.109c-19.588 0-35.412 15.829-35.412 35.422v70.844c0 19.593 15.824 35.422 35.412 35.422h141.648c19.587 0 35.412-15.829 35.412-35.422v-70.844c0-19.593-15.825-35.422-35.412-35.422H340.196Z" fill="#fff"/></g><defs><linearGradient id="a" x1="411.5" y1="0" x2="411.5" y2="823" gradientUnits="userSpaceOnUse"><stop stop-color="#FF6D5D"/><stop offset="1" stop-color="#FF3B30"/></linearGradient><filter id="b" x="127.723" y="163.256" width="571.593" height="500.907" filterUnits="userSpaceOnUse" color-interpolation-filters="sRGB"><feFlood flood-opacity="0" result="BackgroundImageFix"/><feBlend in="SourceGraphic" in2="BackgroundImageFix" result="shape"/><feColorMatrix in="SourceAlpha" values="0 0 0 0 0 0 0 0 0 0 0 0 0 0 0 0 0 0 127 0" result="hardAlpha"/><feOffset dx="5" dy="5"/><feGaussianBlur stdDeviation="10"/><feComposite in2="hardAlpha" operator="arithmetic" k2="-1" k3="1"/><feColorMatrix values="0 0 0 0 0 0 0 0 0 0 0 0 0 0 0 0 0 0 0.2 0"/><feBlend in2="shape" result="effect1_innerShadow_14_3"/></filter></defs></svg>