<svg width="44" viewBox="0 0 24 24" fill="none" xmlns="http://www.w3.org/2000/svg">
<style>
#play-path {
  fill: #0c0c0c;
}

@media (prefers-color-scheme: dark) {
  #play-path {
      fill: #fcfcfc;
  }
}
</style>
<path id="play-path" d="M8 17.175V6.825c0-.283.1-.52.3-.713a.98.98 0 0 1 .962-.25c.092.025.18.063.263.113l8.15 5.175c.15.1.262.225.337.375a1.048 1.048 0 0 1 0 .95.968.968 0 0 1-.337.375l-8.15 5.175a1.04 1.04 0 0 1-.525.15.98.98 0 0 1-.7-.288.947.947 0 0 1-.3-.712Zm2-1.825L15.25 12 10 8.65v6.7Z"/></svg>