<svg width="44" viewBox="0 0 24 24" fill="none" xmlns="http://www.w3.org/2000/svg">
<style>
#save-path {
  fill: #0c0c0c;
}

@media (prefers-color-scheme: dark) {
  #save-path {
      fill: #fcfcfc;
  }
}
</style>
<path d="m18.6 16-5.2-5.15-2.575 2.575c-.383.383-.858.575-1.425.575-.567 0-1.042-.192-1.425-.575L2.7 8.1a.977.977 0 0 1-.287-.687A.93.93 0 0 1 2.7 6.7a.948.948 0 0 1 .7-.275c.283 0 .517.092.7.275L9.4 12l2.575-2.575c.383-.383.858-.575 1.425-.575.567 0 1.042.192 1.425.575L20 14.6V13c0-.283.096-.52.288-.713A.968.968 0 0 1 21 12c.283 0 .52.096.713.287.191.192.287.43.287.713v4c0 .283-.096.52-.287.712A.968.968 0 0 1 21 18h-4a.968.968 0 0 1-.712-.288A.967.967 0 0 1 16 17c0-.283.096-.52.288-.712A.968.968 0 0 1 17 16h1.6Z" id="save-path"/></svg>