<svg width="44" viewBox="0 0 24 24" fill="none" xmlns="http://www.w3.org/2000/svg">
<style>
#tools-path {
  fill: #0c0c0c;
}

@media (prefers-color-scheme: dark) {
  #tools-path {
      fill: #fcfcfc;
  }
}
</style>
<path d="M18.85 21.975c-.133 0-.258-.02-.375-.063a.877.877 0 0 1-.325-.212l-5.1-5.1a.877.877 0 0 1-.213-.325 1.106 1.106 0 0 1-.062-.375c0-.133.02-.258.063-.375a.877.877 0 0 1 .212-.325l2.125-2.125c.1-.1.208-.17.325-.212.117-.042.242-.063.375-.063s.258.02.375.063a.877.877 0 0 1 .325.212l5.1 5.1c.1.1.17.208.212.325.042.117.063.242.063.375s-.02.258-.063.375a.877.877 0 0 1-.212.325L19.55 21.7c-.1.1-.208.17-.325.213a1.106 1.106 0 0 1-.375.062Zm0-2.375.725-.725L15.9 15.2l-.725.725L18.85 19.6ZM5.125 22c-.133 0-.263-.025-.388-.075A.999.999 0 0 1 4.4 21.7l-2.1-2.1a.999.999 0 0 1-.225-.338A1.034 1.034 0 0 1 2 18.875c0-.133.025-.258.075-.375.05-.117.125-.225.225-.325l5.3-5.3h2.125l.85-.85L6.45 7.9H5.025L2 4.875 4.825 2.05 7.85 5.075V6.5l4.125 4.125 2.9-2.9L13.8 6.65l1.4-1.4h-2.825l-.7-.7L15.225 1l.7.7v2.825l1.4-1.4 3.55 3.55c.283.283.5.604.65.963.15.358.225.737.225 1.137s-.075.783-.225 1.15c-.15.367-.367.692-.65.975L18.75 8.775l-1.4 1.4-1.05-1.05-5.175 5.175v2.1l-5.3 5.3c-.1.1-.208.175-.325.225a.942.942 0 0 1-.375.075Zm0-2.4 4.25-4.25v-.725H8.65l-4.25 4.25.725.725Zm0 0-.725-.725.375.35.35.375Z" id="tools-path"/></svg>