<svg width="44" viewBox="0 0 24 24" fill="none" xmlns="http://www.w3.org/2000/svg">
<style>
#tune-path {
  fill: #0c0c0c;
}

@media (prefers-color-scheme: dark) {
  #tune-path {
      fill: #fcfcfc;
  }
}
</style>
<path d="M12 21a.968.968 0 0 1-.713-.288A.968.968 0 0 1 11 20v-4c0-.283.096-.52.287-.713A.968.968 0 0 1 12 15c.283 0 .52.096.713.287.191.192.287.43.287.713v1h7c.283 0 .52.096.712.288.192.191.288.429.288.712s-.096.52-.288.712A.968.968 0 0 1 20 19h-7v1c0 .283-.096.52-.287.712A.968.968 0 0 1 12 21Zm-8-2a.967.967 0 0 1-.712-.288A.968.968 0 0 1 3 18c0-.283.096-.52.288-.712A.967.967 0 0 1 4 17h4c.283 0 .52.096.713.288.191.191.287.429.287.712s-.096.52-.287.712A.967.967 0 0 1 8 19H4Zm4-4a.967.967 0 0 1-.713-.287A.968.968 0 0 1 7 14v-1H4a.967.967 0 0 1-.712-.287A.968.968 0 0 1 3 12c0-.283.096-.52.288-.713A.967.967 0 0 1 4 11h3v-1c0-.283.096-.52.287-.713A.968.968 0 0 1 8 9c.283 0 .52.096.713.287.191.192.287.43.287.713v4c0 .283-.096.52-.287.713A.967.967 0 0 1 8 15Zm4-2a.968.968 0 0 1-.713-.287A.968.968 0 0 1 11 12c0-.283.096-.52.287-.713A.968.968 0 0 1 12 11h8c.283 0 .52.096.712.287.192.192.288.43.288.713s-.096.52-.288.713A.968.968 0 0 1 20 13h-8Zm4-4a.968.968 0 0 1-.713-.287A.967.967 0 0 1 15 8V4c0-.283.096-.52.287-.712A.968.968 0 0 1 16 3c.283 0 .52.096.712.288.192.191.288.429.288.712v1h3c.283 0 .52.096.712.287.192.192.288.43.288.713s-.096.52-.288.713A.968.968 0 0 1 20 7h-3v1c0 .283-.096.52-.288.713A.968.968 0 0 1 16 9ZM4 7a.968.968 0 0 1-.712-.287A.968.968 0 0 1 3 6c0-.283.096-.52.288-.713A.968.968 0 0 1 4 5h8c.283 0 .52.096.713.287.191.192.287.43.287.713s-.096.52-.287.713A.968.968 0 0 1 12 7H4Z" id="tune-path"/></svg>